<mxfile host="app.diagrams.net" modified="2024-03-09T22:49:48.514Z" agent="Mozilla/5.0 (Macintosh; Intel Mac OS X 10_15_7) AppleWebKit/537.36 (KHTML, like Gecko) Chrome/121.0.0.0 Safari/537.36" etag="sxnc9T0E0V_uDCGffzcE" version="23.1.5" type="github">
  <diagram name="Page-1" id="KKMjwjiLGyDvaPT2Ioc3">
    <mxGraphModel dx="3213" dy="2522" grid="0" gridSize="10" guides="1" tooltips="1" connect="1" arrows="1" fold="1" page="0" pageScale="1" pageWidth="827" pageHeight="1169" math="0" shadow="0">
      <root>
        <mxCell id="0" />
        <mxCell id="1" parent="0" />
        <mxCell id="NZchKD5Ku8w6MuhBi-qV-168" value="" style="rounded=1;whiteSpace=wrap;html=1;arcSize=3;fillColor=#F5FFF5;strokeColor=#82b366;" vertex="1" parent="1">
          <mxGeometry x="-651" y="-950.66" width="1519" height="879.66" as="geometry" />
        </mxCell>
        <mxCell id="NZchKD5Ku8w6MuhBi-qV-167" value="" style="rounded=1;whiteSpace=wrap;html=1;arcSize=3;fillColor=default;strokeColor=#d79b00;" vertex="1" parent="1">
          <mxGeometry x="-570" y="-789" width="1371" height="695" as="geometry" />
        </mxCell>
        <mxCell id="NZchKD5Ku8w6MuhBi-qV-70" value="" style="rounded=1;whiteSpace=wrap;html=1;arcSize=5;fillColor=none;strokeColor=#007FFF;" vertex="1" parent="1">
          <mxGeometry x="-396" y="-734.07" width="631" height="615.07" as="geometry" />
        </mxCell>
        <mxCell id="NZchKD5Ku8w6MuhBi-qV-84" value="" style="rounded=1;whiteSpace=wrap;html=1;fillColor=none;" vertex="1" parent="1">
          <mxGeometry x="-336" y="-300" width="550" height="51" as="geometry" />
        </mxCell>
        <mxCell id="h2SNP-2P1y7NnsimHqcH-16" value="" style="rounded=1;whiteSpace=wrap;html=1;" parent="1" vertex="1">
          <mxGeometry x="-481" y="150" width="1108" height="66" as="geometry" />
        </mxCell>
        <mxCell id="h2SNP-2P1y7NnsimHqcH-19" value="" style="group" parent="1" vertex="1" connectable="0">
          <mxGeometry x="184" y="158" width="48" height="60" as="geometry" />
        </mxCell>
        <mxCell id="h2SNP-2P1y7NnsimHqcH-8" value="" style="image;html=1;image=img/lib/atlassian/Trello_Logo.svg;" parent="h2SNP-2P1y7NnsimHqcH-19" vertex="1">
          <mxGeometry x="11.5" width="31" height="31" as="geometry" />
        </mxCell>
        <mxCell id="h2SNP-2P1y7NnsimHqcH-10" value="Trello" style="text;html=1;align=center;verticalAlign=middle;resizable=0;points=[];autosize=1;strokeColor=none;fillColor=none;" parent="h2SNP-2P1y7NnsimHqcH-19" vertex="1">
          <mxGeometry y="34" width="48" height="26" as="geometry" />
        </mxCell>
        <mxCell id="h2SNP-2P1y7NnsimHqcH-20" value="" style="group" parent="1" vertex="1" connectable="0">
          <mxGeometry x="6" y="158" width="44" height="54" as="geometry" />
        </mxCell>
        <mxCell id="h2SNP-2P1y7NnsimHqcH-7" value="" style="image;html=1;image=img/lib/atlassian/Jira_Logo.svg;" parent="h2SNP-2P1y7NnsimHqcH-20" vertex="1">
          <mxGeometry x="6.5" width="31" height="30" as="geometry" />
        </mxCell>
        <mxCell id="h2SNP-2P1y7NnsimHqcH-11" value="JIRA" style="text;html=1;align=center;verticalAlign=middle;resizable=0;points=[];autosize=1;strokeColor=none;fillColor=none;" parent="h2SNP-2P1y7NnsimHqcH-20" vertex="1">
          <mxGeometry y="28" width="44" height="26" as="geometry" />
        </mxCell>
        <mxCell id="h2SNP-2P1y7NnsimHqcH-21" value="" style="group" parent="1" vertex="1" connectable="0">
          <mxGeometry x="-181" y="158" width="79" height="57" as="geometry" />
        </mxCell>
        <mxCell id="h2SNP-2P1y7NnsimHqcH-5" value="" style="image;html=1;image=img/lib/atlassian/Confluence_Logo.svg;" parent="h2SNP-2P1y7NnsimHqcH-21" vertex="1">
          <mxGeometry x="19" width="29" height="31" as="geometry" />
        </mxCell>
        <mxCell id="h2SNP-2P1y7NnsimHqcH-12" value="Confluence" style="text;html=1;align=center;verticalAlign=middle;resizable=0;points=[];autosize=1;strokeColor=none;fillColor=none;" parent="h2SNP-2P1y7NnsimHqcH-21" vertex="1">
          <mxGeometry y="31" width="79" height="26" as="geometry" />
        </mxCell>
        <mxCell id="h2SNP-2P1y7NnsimHqcH-35" value="OVH Hosting" style="shape=image;verticalLabelPosition=bottom;labelBackgroundColor=default;verticalAlign=top;aspect=fixed;imageAspect=0;image=https://static-00.iconduck.com/assets.00/ovh-icon-2048x2048-l4c3izvg.png;" parent="1" vertex="1">
          <mxGeometry x="-630" y="-1042" width="59" height="59" as="geometry" />
        </mxCell>
        <mxCell id="h2SNP-2P1y7NnsimHqcH-38" value="Managed By Accenture" style="shape=image;verticalLabelPosition=bottom;labelBackgroundColor=default;verticalAlign=top;aspect=fixed;imageAspect=0;image=https://www.forgerock.com/sites/default/files/dam-assets/accenture-partner-tp-logo.png;" parent="1" vertex="1">
          <mxGeometry x="723" y="-1026" width="94" height="47" as="geometry" />
        </mxCell>
        <mxCell id="NZchKD5Ku8w6MuhBi-qV-156" style="edgeStyle=orthogonalEdgeStyle;rounded=0;orthogonalLoop=1;jettySize=auto;html=1;exitX=0;exitY=0.5;exitDx=0;exitDy=0;entryX=0;entryY=0.5;entryDx=0;entryDy=0;" edge="1" parent="1" source="NZchKD5Ku8w6MuhBi-qV-13" target="NZchKD5Ku8w6MuhBi-qV-140">
          <mxGeometry relative="1" as="geometry">
            <Array as="points">
              <mxPoint x="-479" y="-564" />
              <mxPoint x="-479" y="64" />
            </Array>
          </mxGeometry>
        </mxCell>
        <mxCell id="NZchKD5Ku8w6MuhBi-qV-161" style="edgeStyle=orthogonalEdgeStyle;rounded=0;orthogonalLoop=1;jettySize=auto;html=1;exitX=0;exitY=0.75;exitDx=0;exitDy=0;entryX=0;entryY=0.5;entryDx=0;entryDy=0;" edge="1" parent="1" source="NZchKD5Ku8w6MuhBi-qV-13" target="h2SNP-2P1y7NnsimHqcH-3">
          <mxGeometry relative="1" as="geometry">
            <Array as="points">
              <mxPoint x="-430" y="-524" />
              <mxPoint x="-430" y="-9" />
            </Array>
          </mxGeometry>
        </mxCell>
        <mxCell id="NZchKD5Ku8w6MuhBi-qV-13" value="" style="rounded=1;whiteSpace=wrap;html=1;arcSize=5;" vertex="1" parent="1">
          <mxGeometry x="-338" y="-644" width="506" height="160" as="geometry" />
        </mxCell>
        <mxCell id="NZchKD5Ku8w6MuhBi-qV-14" value="Jenkins Master" style="shape=image;verticalLabelPosition=bottom;labelBackgroundColor=default;verticalAlign=top;aspect=fixed;imageAspect=0;image=https://upload.wikimedia.org/wikipedia/commons/thumb/e/e9/Jenkins_logo.svg/1200px-Jenkins_logo.svg.png;" vertex="1" parent="1">
          <mxGeometry x="-311.11" y="-614" width="39.11" height="54" as="geometry" />
        </mxCell>
        <mxCell id="NZchKD5Ku8w6MuhBi-qV-29" value="" style="rounded=1;whiteSpace=wrap;html=1;arcSize=5;" vertex="1" parent="1">
          <mxGeometry x="319" y="-899" width="317.69" height="97.64" as="geometry" />
        </mxCell>
        <mxCell id="NZchKD5Ku8w6MuhBi-qV-39" style="edgeStyle=orthogonalEdgeStyle;rounded=0;orthogonalLoop=1;jettySize=auto;html=1;exitX=0.5;exitY=1;exitDx=0;exitDy=0;exitPerimeter=0;" edge="1" parent="1">
          <mxGeometry relative="1" as="geometry">
            <mxPoint x="-61" y="-355.5" as="sourcePoint" />
            <mxPoint x="-61" y="-355.5" as="targetPoint" />
          </mxGeometry>
        </mxCell>
        <mxCell id="NZchKD5Ku8w6MuhBi-qV-51" style="edgeStyle=orthogonalEdgeStyle;rounded=0;orthogonalLoop=1;jettySize=auto;html=1;exitX=1;exitY=0.5;exitDx=0;exitDy=0;entryX=0;entryY=0;entryDx=0;entryDy=0;" edge="1" parent="1" source="NZchKD5Ku8w6MuhBi-qV-28" target="NZchKD5Ku8w6MuhBi-qV-46">
          <mxGeometry relative="1" as="geometry" />
        </mxCell>
        <mxCell id="NZchKD5Ku8w6MuhBi-qV-55" style="edgeStyle=orthogonalEdgeStyle;rounded=0;orthogonalLoop=1;jettySize=auto;html=1;exitX=0.5;exitY=0;exitDx=0;exitDy=0;entryX=0.5;entryY=0;entryDx=0;entryDy=0;" edge="1" parent="1" source="NZchKD5Ku8w6MuhBi-qV-28" target="NZchKD5Ku8w6MuhBi-qV-24">
          <mxGeometry relative="1" as="geometry">
            <Array as="points">
              <mxPoint x="-81" y="-575" />
              <mxPoint x="313" y="-575" />
              <mxPoint x="313" y="-527" />
              <mxPoint x="361" y="-527" />
              <mxPoint x="361" y="-424" />
            </Array>
          </mxGeometry>
        </mxCell>
        <mxCell id="NZchKD5Ku8w6MuhBi-qV-138" style="edgeStyle=orthogonalEdgeStyle;rounded=0;orthogonalLoop=1;jettySize=auto;html=1;exitX=0.5;exitY=1;exitDx=0;exitDy=0;entryX=1;entryY=0.5;entryDx=0;entryDy=0;" edge="1" parent="1" source="NZchKD5Ku8w6MuhBi-qV-28" target="NZchKD5Ku8w6MuhBi-qV-133">
          <mxGeometry relative="1" as="geometry" />
        </mxCell>
        <mxCell id="NZchKD5Ku8w6MuhBi-qV-28" value="Cloud Agent" style="shape=image;verticalLabelPosition=bottom;labelBackgroundColor=default;verticalAlign=top;aspect=fixed;imageAspect=0;image=https://user.oc-static.com/upload/2021/11/10/1636542639252_Moby-logo.png;" vertex="1" parent="1">
          <mxGeometry x="-106" y="-551" width="50" height="35.86" as="geometry" />
        </mxCell>
        <mxCell id="NZchKD5Ku8w6MuhBi-qV-41" value="" style="outlineConnect=0;dashed=0;verticalLabelPosition=bottom;verticalAlign=top;align=center;html=1;shape=mxgraph.aws3.ec2_compute_container;fillColor=#3399FF;gradientColor=none;" vertex="1" parent="1">
          <mxGeometry x="-348" y="-651" width="38" height="23.5" as="geometry" />
        </mxCell>
        <mxCell id="NZchKD5Ku8w6MuhBi-qV-49" style="edgeStyle=orthogonalEdgeStyle;rounded=0;orthogonalLoop=1;jettySize=auto;html=1;exitX=1;exitY=0.5;exitDx=0;exitDy=0;entryX=0;entryY=0.5;entryDx=0;entryDy=0;" edge="1" parent="1" source="NZchKD5Ku8w6MuhBi-qV-42" target="NZchKD5Ku8w6MuhBi-qV-28">
          <mxGeometry relative="1" as="geometry" />
        </mxCell>
        <mxCell id="NZchKD5Ku8w6MuhBi-qV-42" value="Pipeline Build" style="rounded=1;whiteSpace=wrap;html=1;" vertex="1" parent="1">
          <mxGeometry x="-288" y="-526.5" width="134" height="23" as="geometry" />
        </mxCell>
        <mxCell id="NZchKD5Ku8w6MuhBi-qV-47" value="" style="group" vertex="1" connectable="0" parent="1">
          <mxGeometry x="-8" y="-554.5" width="143" height="51" as="geometry" />
        </mxCell>
        <mxCell id="NZchKD5Ku8w6MuhBi-qV-44" value="Agent Template" style="shape=parallelogram;perimeter=parallelogramPerimeter;whiteSpace=wrap;html=1;fixedSize=1;" vertex="1" parent="NZchKD5Ku8w6MuhBi-qV-47">
          <mxGeometry x="26" width="117" height="31" as="geometry" />
        </mxCell>
        <mxCell id="NZchKD5Ku8w6MuhBi-qV-45" value="Agent Template" style="shape=parallelogram;perimeter=parallelogramPerimeter;whiteSpace=wrap;html=1;fixedSize=1;" vertex="1" parent="NZchKD5Ku8w6MuhBi-qV-47">
          <mxGeometry x="13" y="10" width="117" height="31" as="geometry" />
        </mxCell>
        <mxCell id="NZchKD5Ku8w6MuhBi-qV-46" value="Agent Template" style="shape=parallelogram;perimeter=parallelogramPerimeter;whiteSpace=wrap;html=1;fixedSize=1;" vertex="1" parent="NZchKD5Ku8w6MuhBi-qV-47">
          <mxGeometry y="17" width="117" height="31" as="geometry" />
        </mxCell>
        <mxCell id="NZchKD5Ku8w6MuhBi-qV-57" value="" style="shape=image;html=1;verticalAlign=top;verticalLabelPosition=bottom;labelBackgroundColor=#ffffff;imageAspect=0;aspect=fixed;image=https://cdn0.iconfinder.com/data/icons/social-media-2183/512/social__media__social_media__windows__2_-128.png" vertex="1" parent="1">
          <mxGeometry x="305" y="-922" width="48" height="48" as="geometry" />
        </mxCell>
        <mxCell id="NZchKD5Ku8w6MuhBi-qV-58" value="Remoting JAR" style="verticalLabelPosition=bottom;sketch=0;aspect=fixed;html=1;verticalAlign=top;strokeColor=none;align=center;outlineConnect=0;shape=mxgraph.citrix.process;" vertex="1" parent="1">
          <mxGeometry x="353" y="-877.0000000000001" width="41.94" height="50" as="geometry" />
        </mxCell>
        <mxCell id="NZchKD5Ku8w6MuhBi-qV-66" style="edgeStyle=orthogonalEdgeStyle;rounded=0;orthogonalLoop=1;jettySize=auto;html=1;exitX=1;exitY=0.5;exitDx=0;exitDy=0;entryX=0;entryY=0.5;entryDx=0;entryDy=0;" edge="1" parent="1" source="NZchKD5Ku8w6MuhBi-qV-62" target="NZchKD5Ku8w6MuhBi-qV-60">
          <mxGeometry relative="1" as="geometry">
            <Array as="points">
              <mxPoint x="-151" y="-619" />
              <mxPoint x="-151" y="-619" />
            </Array>
          </mxGeometry>
        </mxCell>
        <mxCell id="NZchKD5Ku8w6MuhBi-qV-62" value="Pipeline Release (Win)" style="rounded=1;whiteSpace=wrap;html=1;" vertex="1" parent="1">
          <mxGeometry x="-266" y="-631" width="134" height="23" as="geometry" />
        </mxCell>
        <mxCell id="NZchKD5Ku8w6MuhBi-qV-69" value="" style="group" vertex="1" connectable="0" parent="1">
          <mxGeometry x="-51" y="-644" width="50" height="68" as="geometry" />
        </mxCell>
        <mxCell id="NZchKD5Ku8w6MuhBi-qV-60" value="" style="image;aspect=fixed;perimeter=ellipsePerimeter;html=1;align=center;shadow=0;dashed=0;spacingTop=3;image=img/lib/active_directory/generic_node.svg;imageBackground=default;" vertex="1" parent="NZchKD5Ku8w6MuhBi-qV-69">
          <mxGeometry width="50" height="49" as="geometry" />
        </mxCell>
        <mxCell id="NZchKD5Ku8w6MuhBi-qV-68" value="Node" style="text;html=1;align=center;verticalAlign=middle;resizable=0;points=[];autosize=1;strokeColor=none;fillColor=none;" vertex="1" parent="NZchKD5Ku8w6MuhBi-qV-69">
          <mxGeometry x="1.5" y="42" width="47" height="26" as="geometry" />
        </mxCell>
        <mxCell id="NZchKD5Ku8w6MuhBi-qV-71" value="" style="shape=image;verticalLabelPosition=bottom;labelBackgroundColor=default;verticalAlign=top;aspect=fixed;imageAspect=0;image=https://upload.wikimedia.org/wikipedia/commons/d/d6/Linux_mascot_tux.png;" vertex="1" parent="1">
          <mxGeometry x="-412" y="-757" width="42.09" height="50.97" as="geometry" />
        </mxCell>
        <mxCell id="NZchKD5Ku8w6MuhBi-qV-77" value="" style="group" vertex="1" connectable="0" parent="1">
          <mxGeometry x="12.999999999999943" y="-423" width="210.00000000000006" height="93.69999999999999" as="geometry" />
        </mxCell>
        <mxCell id="NZchKD5Ku8w6MuhBi-qV-78" value="" style="rounded=1;whiteSpace=wrap;html=1;fillColor=none;" vertex="1" parent="NZchKD5Ku8w6MuhBi-qV-77">
          <mxGeometry x="11.000000000000057" y="9" width="199" height="60" as="geometry" />
        </mxCell>
        <mxCell id="NZchKD5Ku8w6MuhBi-qV-79" value="" style="group" vertex="1" connectable="0" parent="NZchKD5Ku8w6MuhBi-qV-77">
          <mxGeometry x="27.000000000000057" y="13.609999999999957" width="83" height="80.09000000000003" as="geometry" />
        </mxCell>
        <mxCell id="NZchKD5Ku8w6MuhBi-qV-80" value="" style="shape=image;verticalLabelPosition=bottom;labelBackgroundColor=default;verticalAlign=top;aspect=fixed;imageAspect=0;image=https://upload.wikimedia.org/wikipedia/commons/thumb/b/ba/Database-postgres.svg/1448px-Database-postgres.svg.png;" vertex="1" parent="NZchKD5Ku8w6MuhBi-qV-79">
          <mxGeometry x="15" width="44" height="62.19" as="geometry" />
        </mxCell>
        <mxCell id="NZchKD5Ku8w6MuhBi-qV-82" value="" style="outlineConnect=0;dashed=0;verticalLabelPosition=bottom;verticalAlign=top;align=center;html=1;shape=mxgraph.aws3.ec2_compute_container;fillColor=#3399FF;gradientColor=none;" vertex="1" parent="NZchKD5Ku8w6MuhBi-qV-77">
          <mxGeometry width="38" height="23.5" as="geometry" />
        </mxCell>
        <mxCell id="h2SNP-2P1y7NnsimHqcH-64" value="" style="shape=image;verticalLabelPosition=bottom;labelBackgroundColor=default;verticalAlign=top;aspect=fixed;imageAspect=0;image=https://miro.medium.com/v2/resize:fit:1400/0*qflaBuTkTVttD-FY.png;" parent="NZchKD5Ku8w6MuhBi-qV-77" vertex="1">
          <mxGeometry x="98.47000000000006" y="11" width="111.53" height="58" as="geometry" />
        </mxCell>
        <mxCell id="NZchKD5Ku8w6MuhBi-qV-109" value="" style="group" vertex="1" connectable="0" parent="1">
          <mxGeometry x="29" y="-228" width="131" height="78" as="geometry" />
        </mxCell>
        <mxCell id="NZchKD5Ku8w6MuhBi-qV-100" value="" style="rounded=1;whiteSpace=wrap;html=1;fillColor=none;" vertex="1" parent="NZchKD5Ku8w6MuhBi-qV-109">
          <mxGeometry x="11" y="10.17391304347826" width="120" height="67.82608695652173" as="geometry" />
        </mxCell>
        <mxCell id="NZchKD5Ku8w6MuhBi-qV-104" value="" style="outlineConnect=0;dashed=0;verticalLabelPosition=bottom;verticalAlign=top;align=center;html=1;shape=mxgraph.aws3.ec2_compute_container;fillColor=#3399FF;gradientColor=none;" vertex="1" parent="NZchKD5Ku8w6MuhBi-qV-109">
          <mxGeometry width="38" height="26.565217391304344" as="geometry" />
        </mxCell>
        <mxCell id="NZchKD5Ku8w6MuhBi-qV-105" value="Portainer" style="shape=image;verticalLabelPosition=bottom;labelBackgroundColor=default;verticalAlign=top;aspect=fixed;imageAspect=0;image=https://res.cloudinary.com/canonical/image/fetch/f_auto,q_auto,fl_sanitize,c_fill,w_200,h_200/https://api.charmhub.io/api/v1/media/download/charm_Owpj9CsDEMZwVtup3ZTxxs0FtyvDqb2o_icon_5cef79c2d18f67464f39c8f2cf2d7ebb815b0071f04d3ffbb94f49fddd3ab666.png;" vertex="1" parent="NZchKD5Ku8w6MuhBi-qV-109">
          <mxGeometry x="52.5" y="17" width="37" height="37" as="geometry" />
        </mxCell>
        <mxCell id="NZchKD5Ku8w6MuhBi-qV-119" value="" style="group" vertex="1" connectable="0" parent="1">
          <mxGeometry x="-290.00000000000006" y="-228" width="131" height="82" as="geometry" />
        </mxCell>
        <mxCell id="NZchKD5Ku8w6MuhBi-qV-120" value="" style="rounded=1;whiteSpace=wrap;html=1;fillColor=none;arcSize=7;" vertex="1" parent="NZchKD5Ku8w6MuhBi-qV-119">
          <mxGeometry x="11" y="9" width="120" height="73" as="geometry" />
        </mxCell>
        <mxCell id="NZchKD5Ku8w6MuhBi-qV-121" value="" style="outlineConnect=0;dashed=0;verticalLabelPosition=bottom;verticalAlign=top;align=center;html=1;shape=mxgraph.aws3.ec2_compute_container;fillColor=#3399FF;gradientColor=none;" vertex="1" parent="NZchKD5Ku8w6MuhBi-qV-119">
          <mxGeometry width="38" height="23.5" as="geometry" />
        </mxCell>
        <mxCell id="NZchKD5Ku8w6MuhBi-qV-123" value="Rundeck" style="shape=image;verticalLabelPosition=bottom;labelBackgroundColor=default;verticalAlign=top;aspect=fixed;imageAspect=0;image=https://projects.task.gda.pl/uploads/-/system/project/avatar/165/rundeck_logo.png;" vertex="1" parent="NZchKD5Ku8w6MuhBi-qV-119">
          <mxGeometry x="49.940000000000055" y="13.939999999999998" width="42.13" height="42.13" as="geometry" />
        </mxCell>
        <mxCell id="NZchKD5Ku8w6MuhBi-qV-112" value="" style="group" vertex="1" connectable="0" parent="1">
          <mxGeometry x="-134.00000000000006" y="-226" width="131" height="80" as="geometry" />
        </mxCell>
        <mxCell id="NZchKD5Ku8w6MuhBi-qV-106" value="" style="rounded=1;whiteSpace=wrap;html=1;fillColor=none;" vertex="1" parent="NZchKD5Ku8w6MuhBi-qV-112">
          <mxGeometry x="11" y="9" width="120" height="71" as="geometry" />
        </mxCell>
        <mxCell id="NZchKD5Ku8w6MuhBi-qV-107" value="" style="outlineConnect=0;dashed=0;verticalLabelPosition=bottom;verticalAlign=top;align=center;html=1;shape=mxgraph.aws3.ec2_compute_container;fillColor=#3399FF;gradientColor=none;" vertex="1" parent="NZchKD5Ku8w6MuhBi-qV-112">
          <mxGeometry width="38" height="23.5" as="geometry" />
        </mxCell>
        <mxCell id="NZchKD5Ku8w6MuhBi-qV-111" value="ELK Stack" style="shape=image;verticalLabelPosition=bottom;labelBackgroundColor=default;verticalAlign=top;aspect=fixed;imageAspect=0;image=https://cdn.iconscout.com/icon/free/png-256/free-elasticsearch-226094.png;" vertex="1" parent="NZchKD5Ku8w6MuhBi-qV-112">
          <mxGeometry x="49.93" y="15.000000000000002" width="42.15" height="42.15" as="geometry" />
        </mxCell>
        <mxCell id="NZchKD5Ku8w6MuhBi-qV-88" value="" style="outlineConnect=0;dashed=0;verticalLabelPosition=bottom;verticalAlign=top;align=center;html=1;shape=mxgraph.aws3.ec2_compute_container;fillColor=#3399FF;gradientColor=none;" vertex="1" parent="1">
          <mxGeometry x="-350.5" y="-313.86" width="38" height="24.2" as="geometry" />
        </mxCell>
        <mxCell id="NZchKD5Ku8w6MuhBi-qV-12" value="" style="shape=image;verticalLabelPosition=bottom;labelBackgroundColor=default;verticalAlign=top;aspect=fixed;imageAspect=0;image=https://download.logo.wine/logo/Nginx/Nginx-Logo.wine.png;clipPath=inset(25% 10.33% 25% 9.33%);" vertex="1" parent="1">
          <mxGeometry x="-121.46000000000006" y="-289.66" width="81.93" height="34" as="geometry" />
        </mxCell>
        <mxCell id="NZchKD5Ku8w6MuhBi-qV-124" style="edgeStyle=orthogonalEdgeStyle;rounded=0;orthogonalLoop=1;jettySize=auto;html=1;exitX=0.5;exitY=0;exitDx=0;exitDy=0;entryX=0.786;entryY=0.819;entryDx=0;entryDy=0;entryPerimeter=0;" edge="1" parent="1" source="NZchKD5Ku8w6MuhBi-qV-100" target="NZchKD5Ku8w6MuhBi-qV-70">
          <mxGeometry relative="1" as="geometry" />
        </mxCell>
        <mxCell id="NZchKD5Ku8w6MuhBi-qV-125" style="edgeStyle=orthogonalEdgeStyle;rounded=0;orthogonalLoop=1;jettySize=auto;html=1;exitX=0.5;exitY=0;exitDx=0;exitDy=0;" edge="1" parent="1" source="NZchKD5Ku8w6MuhBi-qV-106">
          <mxGeometry relative="1" as="geometry">
            <mxPoint x="-60" y="-252" as="targetPoint" />
          </mxGeometry>
        </mxCell>
        <mxCell id="NZchKD5Ku8w6MuhBi-qV-129" style="edgeStyle=orthogonalEdgeStyle;rounded=0;orthogonalLoop=1;jettySize=auto;html=1;exitX=0.5;exitY=0;exitDx=0;exitDy=0;entryX=0.211;entryY=0.99;entryDx=0;entryDy=0;entryPerimeter=0;" edge="1" parent="1" source="NZchKD5Ku8w6MuhBi-qV-120" target="NZchKD5Ku8w6MuhBi-qV-84">
          <mxGeometry relative="1" as="geometry" />
        </mxCell>
        <mxCell id="NZchKD5Ku8w6MuhBi-qV-132" value="" style="group" vertex="1" connectable="0" parent="1">
          <mxGeometry x="-308" y="-459" width="163" height="95" as="geometry" />
        </mxCell>
        <mxCell id="NZchKD5Ku8w6MuhBi-qV-133" value="" style="rounded=1;whiteSpace=wrap;html=1;fillColor=none;" vertex="1" parent="NZchKD5Ku8w6MuhBi-qV-132">
          <mxGeometry x="13.69" y="10.17" width="149.31" height="84.83" as="geometry" />
        </mxCell>
        <mxCell id="NZchKD5Ku8w6MuhBi-qV-134" value="" style="outlineConnect=0;dashed=0;verticalLabelPosition=bottom;verticalAlign=top;align=center;html=1;shape=mxgraph.aws3.ec2_compute_container;fillColor=#3399FF;gradientColor=none;" vertex="1" parent="NZchKD5Ku8w6MuhBi-qV-132">
          <mxGeometry y="20" width="47.282442748091604" height="26.565217391304344" as="geometry" />
        </mxCell>
        <mxCell id="NZchKD5Ku8w6MuhBi-qV-137" value="Build Container" style="shape=image;verticalLabelPosition=bottom;labelBackgroundColor=default;verticalAlign=top;aspect=fixed;imageAspect=0;image=https://upload.wikimedia.org/wikipedia/commons/thumb/e/e9/Jenkins_logo.svg/1200px-Jenkins_logo.svg.png;" vertex="1" parent="NZchKD5Ku8w6MuhBi-qV-132">
          <mxGeometry x="67.19083969465649" y="12" width="39.11" height="54" as="geometry" />
        </mxCell>
        <mxCell id="NZchKD5Ku8w6MuhBi-qV-139" value="" style="group" vertex="1" connectable="0" parent="1">
          <mxGeometry x="82" y="40" width="67" height="73" as="geometry" />
        </mxCell>
        <mxCell id="NZchKD5Ku8w6MuhBi-qV-140" value="" style="image;html=1;image=img/lib/atlassian/Bitbucket_Logo.svg;" vertex="1" parent="NZchKD5Ku8w6MuhBi-qV-139">
          <mxGeometry x="0.5" width="57" height="47" as="geometry" />
        </mxCell>
        <mxCell id="NZchKD5Ku8w6MuhBi-qV-141" value="Bitbucket" style="text;html=1;align=center;verticalAlign=middle;resizable=0;points=[];autosize=1;strokeColor=none;fillColor=none;" vertex="1" parent="NZchKD5Ku8w6MuhBi-qV-139">
          <mxGeometry y="47" width="67" height="26" as="geometry" />
        </mxCell>
        <mxCell id="NZchKD5Ku8w6MuhBi-qV-144" style="edgeStyle=orthogonalEdgeStyle;rounded=0;orthogonalLoop=1;jettySize=auto;html=1;exitX=1;exitY=0.75;exitDx=0;exitDy=0;entryX=0;entryY=0.5;entryDx=0;entryDy=0;" edge="1" parent="1" source="NZchKD5Ku8w6MuhBi-qV-133" target="NZchKD5Ku8w6MuhBi-qV-78">
          <mxGeometry relative="1" as="geometry" />
        </mxCell>
        <mxCell id="NZchKD5Ku8w6MuhBi-qV-145" style="edgeStyle=orthogonalEdgeStyle;rounded=0;orthogonalLoop=1;jettySize=auto;html=1;exitX=0.5;exitY=1;exitDx=0;exitDy=0;entryX=0.52;entryY=-0.138;entryDx=0;entryDy=0;entryPerimeter=0;" edge="1" parent="1" source="NZchKD5Ku8w6MuhBi-qV-78" target="NZchKD5Ku8w6MuhBi-qV-84">
          <mxGeometry relative="1" as="geometry" />
        </mxCell>
        <mxCell id="NZchKD5Ku8w6MuhBi-qV-152" style="edgeStyle=orthogonalEdgeStyle;rounded=0;orthogonalLoop=1;jettySize=auto;html=1;exitX=0.25;exitY=1;exitDx=0;exitDy=0;entryX=1.03;entryY=0.637;entryDx=0;entryDy=0;entryPerimeter=0;" edge="1" parent="1" source="NZchKD5Ku8w6MuhBi-qV-147" target="h2SNP-2P1y7NnsimHqcH-64">
          <mxGeometry relative="1" as="geometry" />
        </mxCell>
        <mxCell id="NZchKD5Ku8w6MuhBi-qV-155" style="edgeStyle=orthogonalEdgeStyle;rounded=0;orthogonalLoop=1;jettySize=auto;html=1;exitX=0;exitY=0.5;exitDx=0;exitDy=0;entryX=0;entryY=0.5;entryDx=0;entryDy=0;" edge="1" parent="1" source="NZchKD5Ku8w6MuhBi-qV-133" target="NZchKD5Ku8w6MuhBi-qV-140">
          <mxGeometry relative="1" as="geometry">
            <Array as="points">
              <mxPoint x="-478" y="-406" />
              <mxPoint x="-478" y="64" />
            </Array>
          </mxGeometry>
        </mxCell>
        <mxCell id="NZchKD5Ku8w6MuhBi-qV-157" style="edgeStyle=orthogonalEdgeStyle;rounded=0;orthogonalLoop=1;jettySize=auto;html=1;exitX=1;exitY=0.5;exitDx=0;exitDy=0;entryX=1;entryY=0.5;entryDx=0;entryDy=0;" edge="1" parent="1" source="NZchKD5Ku8w6MuhBi-qV-147" target="NZchKD5Ku8w6MuhBi-qV-140">
          <mxGeometry relative="1" as="geometry" />
        </mxCell>
        <mxCell id="h2SNP-2P1y7NnsimHqcH-44" value="Docker SWarm Cluster" style="shape=image;verticalLabelPosition=bottom;labelBackgroundColor=default;verticalAlign=top;aspect=fixed;imageAspect=0;image=https://raw.githubusercontent.com/docker-library/docs/471fa6e4cb58062ccbf91afc111980f9c7004981/swarm/logo.png;" parent="1" vertex="1">
          <mxGeometry x="-621" y="-838" width="115.38" height="96" as="geometry" />
        </mxCell>
        <mxCell id="h2SNP-2P1y7NnsimHqcH-3" value="" style="shape=image;verticalLabelPosition=bottom;labelBackgroundColor=default;verticalAlign=top;aspect=fixed;imageAspect=0;image=https://devtools.in/wp-content/uploads/2022/10/Jfrog.png;" parent="1" vertex="1">
          <mxGeometry x="-56" y="-46" width="74" height="74" as="geometry" />
        </mxCell>
        <mxCell id="NZchKD5Ku8w6MuhBi-qV-24" value="Remote Docker API " style="shape=image;verticalLabelPosition=bottom;labelBackgroundColor=default;verticalAlign=top;aspect=fixed;imageAspect=0;image=https://user.oc-static.com/upload/2021/11/10/1636542639252_Moby-logo.png;" vertex="1" parent="1">
          <mxGeometry x="350.86870937790155" y="-424.43" width="28.783658310120707" height="20.64363974001857" as="geometry" />
        </mxCell>
        <mxCell id="NZchKD5Ku8w6MuhBi-qV-150" value="" style="rounded=1;whiteSpace=wrap;html=1;arcSize=5;fillColor=none;strokeColor=#007FFF;" vertex="1" parent="1">
          <mxGeometry x="286.75" y="-462" width="363.25" height="149" as="geometry" />
        </mxCell>
        <mxCell id="NZchKD5Ku8w6MuhBi-qV-146" value="" style="group" vertex="1" connectable="0" parent="1">
          <mxGeometry x="437" y="-451.43" width="163" height="95" as="geometry" />
        </mxCell>
        <mxCell id="NZchKD5Ku8w6MuhBi-qV-147" value="" style="rounded=1;whiteSpace=wrap;html=1;fillColor=none;" vertex="1" parent="NZchKD5Ku8w6MuhBi-qV-146">
          <mxGeometry x="13.69" y="9.17" width="149.31" height="84.83" as="geometry" />
        </mxCell>
        <mxCell id="NZchKD5Ku8w6MuhBi-qV-148" value="" style="outlineConnect=0;dashed=0;verticalLabelPosition=bottom;verticalAlign=top;align=center;html=1;shape=mxgraph.aws3.ec2_compute_container;fillColor=#3399FF;gradientColor=none;" vertex="1" parent="NZchKD5Ku8w6MuhBi-qV-146">
          <mxGeometry width="47.282442748091604" height="26.565217391304344" as="geometry" />
        </mxCell>
        <mxCell id="NZchKD5Ku8w6MuhBi-qV-149" value="Build Container" style="shape=image;verticalLabelPosition=bottom;labelBackgroundColor=default;verticalAlign=top;aspect=fixed;imageAspect=0;image=https://upload.wikimedia.org/wikipedia/commons/thumb/e/e9/Jenkins_logo.svg/1200px-Jenkins_logo.svg.png;" vertex="1" parent="NZchKD5Ku8w6MuhBi-qV-146">
          <mxGeometry x="67.19083969465649" y="12" width="39.11" height="54" as="geometry" />
        </mxCell>
        <mxCell id="NZchKD5Ku8w6MuhBi-qV-159" style="edgeStyle=orthogonalEdgeStyle;rounded=0;orthogonalLoop=1;jettySize=auto;html=1;exitX=0.75;exitY=1;exitDx=0;exitDy=0;entryX=1;entryY=0.5;entryDx=0;entryDy=0;" edge="1" parent="1" source="NZchKD5Ku8w6MuhBi-qV-147" target="h2SNP-2P1y7NnsimHqcH-3">
          <mxGeometry relative="1" as="geometry" />
        </mxCell>
        <mxCell id="NZchKD5Ku8w6MuhBi-qV-162" style="edgeStyle=orthogonalEdgeStyle;rounded=0;orthogonalLoop=1;jettySize=auto;html=1;exitX=0;exitY=0.75;exitDx=0;exitDy=0;entryX=0;entryY=0.5;entryDx=0;entryDy=0;" edge="1" parent="1" source="NZchKD5Ku8w6MuhBi-qV-133" target="h2SNP-2P1y7NnsimHqcH-3">
          <mxGeometry relative="1" as="geometry">
            <Array as="points">
              <mxPoint x="-431" y="-385" />
              <mxPoint x="-431" y="-9" />
            </Array>
          </mxGeometry>
        </mxCell>
        <mxCell id="NZchKD5Ku8w6MuhBi-qV-163" value="" style="shape=image;verticalLabelPosition=bottom;labelBackgroundColor=default;verticalAlign=top;aspect=fixed;imageAspect=0;image=https://upload.wikimedia.org/wikipedia/commons/d/d6/Linux_mascot_tux.png;" vertex="1" parent="1">
          <mxGeometry x="273" y="-487" width="42.09" height="50.97" as="geometry" />
        </mxCell>
        <mxCell id="NZchKD5Ku8w6MuhBi-qV-74" value="" style="rounded=1;whiteSpace=wrap;html=1;fillColor=none;" vertex="1" parent="1">
          <mxGeometry x="469.75" y="-675" width="199" height="60" as="geometry" />
        </mxCell>
        <mxCell id="NZchKD5Ku8w6MuhBi-qV-164" value="" style="rounded=1;whiteSpace=wrap;html=1;arcSize=5;fillColor=none;strokeColor=#007FFF;" vertex="1" parent="1">
          <mxGeometry x="336.75" y="-739.3" width="363.25" height="149" as="geometry" />
        </mxCell>
        <mxCell id="h2SNP-2P1y7NnsimHqcH-58" value="" style="group" parent="1" vertex="1" connectable="0">
          <mxGeometry x="485.75" y="-670.3900000000001" width="83" height="80.09000000000003" as="geometry" />
        </mxCell>
        <mxCell id="h2SNP-2P1y7NnsimHqcH-55" value="" style="shape=image;verticalLabelPosition=bottom;labelBackgroundColor=default;verticalAlign=top;aspect=fixed;imageAspect=0;image=https://upload.wikimedia.org/wikipedia/commons/thumb/b/ba/Database-postgres.svg/1448px-Database-postgres.svg.png;" parent="h2SNP-2P1y7NnsimHqcH-58" vertex="1">
          <mxGeometry x="15" width="44" height="62.19" as="geometry" />
        </mxCell>
        <mxCell id="NZchKD5Ku8w6MuhBi-qV-171" style="edgeStyle=orthogonalEdgeStyle;rounded=0;orthogonalLoop=1;jettySize=auto;html=1;exitX=1;exitY=0.5;exitDx=0;exitDy=0;entryX=1;entryY=0.5;entryDx=0;entryDy=0;" edge="1" parent="1" source="h2SNP-2P1y7NnsimHqcH-57" target="NZchKD5Ku8w6MuhBi-qV-84">
          <mxGeometry relative="1" as="geometry">
            <Array as="points">
              <mxPoint x="718" y="-638" />
              <mxPoint x="718" y="-275" />
            </Array>
          </mxGeometry>
        </mxCell>
        <mxCell id="h2SNP-2P1y7NnsimHqcH-57" value="" style="shape=image;verticalLabelPosition=bottom;labelBackgroundColor=default;verticalAlign=top;aspect=fixed;imageAspect=0;image=https://static.wixstatic.com/media/bfcc04_ee14395b8c5c4ec2b98ea17d86d8e15b~mv2.png;" parent="1" vertex="1">
          <mxGeometry x="562.75" y="-652" width="89" height="27.22" as="geometry" />
        </mxCell>
        <mxCell id="NZchKD5Ku8w6MuhBi-qV-75" value="" style="outlineConnect=0;dashed=0;verticalLabelPosition=bottom;verticalAlign=top;align=center;html=1;shape=mxgraph.aws3.ec2_compute_container;fillColor=#3399FF;gradientColor=none;" vertex="1" parent="1">
          <mxGeometry x="458.75" y="-684" width="38" height="23.5" as="geometry" />
        </mxCell>
        <mxCell id="NZchKD5Ku8w6MuhBi-qV-165" value="" style="shape=image;verticalLabelPosition=bottom;labelBackgroundColor=default;verticalAlign=top;aspect=fixed;imageAspect=0;image=https://upload.wikimedia.org/wikipedia/commons/d/d6/Linux_mascot_tux.png;" vertex="1" parent="1">
          <mxGeometry x="322.65999999999997" y="-755" width="42.09" height="50.97" as="geometry" />
        </mxCell>
        <mxCell id="NZchKD5Ku8w6MuhBi-qV-166" style="edgeStyle=orthogonalEdgeStyle;rounded=0;orthogonalLoop=1;jettySize=auto;html=1;exitX=0.5;exitY=0;exitDx=0;exitDy=0;entryX=-0.003;entryY=0.402;entryDx=0;entryDy=0;entryPerimeter=0;" edge="1" parent="1" source="NZchKD5Ku8w6MuhBi-qV-60" target="NZchKD5Ku8w6MuhBi-qV-29">
          <mxGeometry relative="1" as="geometry" />
        </mxCell>
      </root>
    </mxGraphModel>
  </diagram>
</mxfile>
